<mxfile host="app.diagrams.net" agent="Mozilla/5.0 (Windows NT 10.0; Win64; x64) AppleWebKit/537.36 (KHTML, like Gecko) Chrome/131.0.0.0 Safari/537.36 OPR/116.0.0.0" version="26.0.14">
  <diagram name="Página-1" id="L9XUC7N33G-KT3ya3bNB">
    <mxGraphModel grid="1" page="1" gridSize="10" guides="1" tooltips="1" connect="1" arrows="1" fold="1" pageScale="1" pageWidth="827" pageHeight="1169" math="0" shadow="0">
      <root>
        <mxCell id="0" />
        <mxCell id="1" parent="0" />
        <mxCell id="AsGTSz00OtaDeHxleYTq-6" style="edgeStyle=orthogonalEdgeStyle;rounded=0;orthogonalLoop=1;jettySize=auto;html=1;entryX=0.5;entryY=0;entryDx=0;entryDy=0;" edge="1" parent="1" source="AsGTSz00OtaDeHxleYTq-1" target="AsGTSz00OtaDeHxleYTq-3">
          <mxGeometry relative="1" as="geometry" />
        </mxCell>
        <mxCell id="AsGTSz00OtaDeHxleYTq-1" value="INICIO" style="rounded=1;whiteSpace=wrap;html=1;arcSize=50;" vertex="1" parent="1">
          <mxGeometry x="310" y="70" width="120" height="60" as="geometry" />
        </mxCell>
        <mxCell id="AsGTSz00OtaDeHxleYTq-2" value="FINAL" style="rounded=1;whiteSpace=wrap;html=1;arcSize=50;" vertex="1" parent="1">
          <mxGeometry x="309" y="410" width="120" height="60" as="geometry" />
        </mxCell>
        <mxCell id="AsGTSz00OtaDeHxleYTq-3" value="Peça o nome da pessoa&lt;div&gt;(nome)&lt;/div&gt;" style="shape=parallelogram;perimeter=parallelogramPerimeter;whiteSpace=wrap;html=1;fixedSize=1;" vertex="1" parent="1">
          <mxGeometry x="310" y="180" width="120" height="60" as="geometry" />
        </mxCell>
        <mxCell id="AsGTSz00OtaDeHxleYTq-8" style="edgeStyle=orthogonalEdgeStyle;rounded=0;orthogonalLoop=1;jettySize=auto;html=1;entryX=0.5;entryY=0;entryDx=0;entryDy=0;" edge="1" parent="1" source="AsGTSz00OtaDeHxleYTq-5" target="AsGTSz00OtaDeHxleYTq-2">
          <mxGeometry relative="1" as="geometry" />
        </mxCell>
        <mxCell id="AsGTSz00OtaDeHxleYTq-5" value="Exiba&lt;div&gt;Olá, (nome)!&lt;/div&gt;" style="shape=display;whiteSpace=wrap;html=1;" vertex="1" parent="1">
          <mxGeometry x="294" y="289" width="150" height="70" as="geometry" />
        </mxCell>
        <mxCell id="AsGTSz00OtaDeHxleYTq-7" style="edgeStyle=orthogonalEdgeStyle;rounded=0;orthogonalLoop=1;jettySize=auto;html=1;entryX=0;entryY=0;entryDx=76.25;entryDy=0;entryPerimeter=0;" edge="1" parent="1" source="AsGTSz00OtaDeHxleYTq-3" target="AsGTSz00OtaDeHxleYTq-5">
          <mxGeometry relative="1" as="geometry" />
        </mxCell>
      </root>
    </mxGraphModel>
  </diagram>
</mxfile>
